<?xml version="1.0" encoding="utf-8"?>
<!-- Generator: Adobe Illustrator 16.0.0, SVG Export Plug-In . SVG Version: 6.00 Build 0)  -->
<!DOCTYPE svg PUBLIC "-//W3C//DTD SVG 1.1//EN" "http://www.w3.org/Graphics/SVG/1.1/DTD/svg11.dtd">
<svg version="1.1" id="Livello_1" xmlns="http://www.w3.org/2000/svg" xmlns:xlink="http://www.w3.org/1999/xlink" x="0px" y="0px"
	 width="1311px" height="264px" viewBox="0 0 1311 264" enable-background="new 0 0 1311 264" xml:space="preserve">
<g id="Livello_1_1_">
</g>
<g id="guide">
</g>
<path fill="#8C7965" d="M912.208,175.184c-46.865,0-85.039-36.654-86.932-83.456l5.329-0.209
	c1.769,43.919,37.622,78.337,81.603,78.337c0.013,0,0.013,0,0.021,0v5.328C912.22,175.184,912.208,175.184,912.208,175.184z"/>
<path fill="#8C7965" d="M203.767,175.184c-46.865,0-85.039-36.654-86.932-83.456l5.329-0.209
	c1.769,43.919,37.622,78.337,81.603,78.337c0.013,0,0.013,0,0.021,0v5.328C203.778,175.184,203.767,175.184,203.767,175.184z"/>
<path fill="#8C7965" d="M399.508,175.607v-5.328c0.01,0,0.01,0,0.021,0c43.98,0,79.834-34.418,81.604-78.337l5.329,0.209
	c-1.894,46.8-40.066,83.456-86.932,83.456C399.529,175.607,399.518,175.607,399.508,175.607z"/>
<path fill="#8C7965" d="M1107.212,175.607v-5.328c0.01,0,0.01,0,0.021,0c43.98,0,79.834-34.418,81.604-78.337l5.329,0.209
	c-1.894,46.8-40.065,83.456-86.932,83.456C1107.232,175.607,1107.222,175.607,1107.212,175.607z"/>
<rect x="365.242" y="123.233" fill="#8C7965" width="4.257" height="69.682"/>
<rect x="228.654" y="124.347" fill="#EE7402" width="4.254" height="67.455"/>
<rect x="241.02" y="125.61" fill="#8C7965" width="4.256" height="65.021"/>
<rect x="277.834" y="127.638" fill="#008B9C" width="4.256" height="61.056"/>
<rect x="1074.058" y="122.812" fill="#8C7965" width="4.254" height="69.681"/>
<rect x="937.468" y="123.924" fill="#008B9C" width="4.254" height="67.455"/>
<rect x="949.833" y="125.187" fill="#8C7965" width="4.256" height="65.021"/>
<rect x="986.657" y="127.215" fill="#EE7402" width="4.254" height="61.057"/>
<path fill="#008B9C" d="M304.229,162.051c1.545-1.538,1.529-4.031,0-5.576c-1.547-1.529-4.023-1.529-5.576,0
	c-1.537,1.562-1.537,4.055,0,5.576C300.189,163.605,302.682,163.605,304.229,162.051L304.229,162.051L304.229,162.051z"/>
<path fill="#EE7402" d="M266.914,153.699c-3.066-3.075-8.035-3.075-11.152,0c-3.06,3.082-3.06,8.078,0,11.144
	c3.076,3.083,8.086,3.083,11.152,0C270.023,161.752,269.998,156.781,266.914,153.699z M261.355,163.238l-3.947-3.963l3.947-3.939
	l3.947,3.939L261.355,163.238z"/>
<path fill="#EE7402" d="M347.094,153.699c-3.076-3.075-8.053-3.075-11.162,0c-3.066,3.082-3.066,8.078,0,11.144
	c3.092,3.083,8.086,3.083,11.162,0C350.201,161.752,350.168,156.781,347.094,153.699z M341.525,163.238l-3.938-3.963l3.938-3.939
	l3.947,3.939L341.525,163.238z"/>
<path fill="#008B9C" d="M970.177,150.966l-7.895,7.886l7.895,7.903l7.896-7.903L970.177,150.966z M966.296,158.854l3.938-3.939
	l3.947,3.939l-3.947,3.963L966.296,158.854z"/>
<path fill="#008B9C" d="M1050.339,150.966l-7.912,7.886l7.912,7.903l7.896-7.903L1050.339,150.966z M1046.45,158.854l3.946-3.939
	l3.947,3.939l-3.947,3.963L1046.45,158.854z"/>
<path fill="#EE7402" d="M1002.372,156.867c-0.019,4.361,3.522,7.869,7.877,7.895c4.373-0.008,7.896-3.54,7.896-7.895"/>
<path fill="#8C7965" d="M235.484,195.517l-0.848-0.125c-0.016,0-0.016,0-0.033,0c-20.336,0-36.498-16.403-36.498-37.338
	c0-20.626,16.787-37.413,37.412-37.413c2.676,0,5.385,0.3,8.045,0.897c16.389,1.744,46.072,4.753,58.072,4.753
	c12.6-0.017,44.693-3.357,57.908-4.787c2.426-0.558,5.135-0.864,7.836-0.864c20.627,0,37.404,16.787,37.404,37.413
	c0,20.635-16.777,37.414-37.404,37.414c-2.685,0-5.377-0.299-8.252-0.931c-16.131-1.729-45.342-4.704-57.394-4.704
	c-0.032,0-0.065,0-0.082,0c-12.832,0-45.176,3.374-58.487,4.828c-2.16,0.466-4.604,0.74-7.08,0.781L235.484,195.517z
	 M235.51,124.903c-18.275,0-33.15,14.866-33.15,33.149c0,18.574,14.312,33.117,32.594,33.117l0.574,0.066l0.381-0.033
	c2.236-0.033,4.447-0.274,6.591-0.723c13.58-1.496,46.106-4.888,59.137-4.888c0.033,0,0.065,0,0.101,0
	c12.268,0,41.635,2.992,58.073,4.771c2.791,0.599,5.193,0.873,7.57,0.873c18.272,0,33.149-14.867,33.149-33.158
	c0-18.283-14.877-33.158-33.149-33.158c-2.385,0-4.779,0.267-7.139,0.806c-13.515,1.479-45.791,4.828-58.588,4.846
	c-12.218,0-42.068-3.018-58.787-4.812C240.271,125.169,237.879,124.903,235.51,124.903z"/>
<path fill="#8C7965" d="M944.298,195.094l-0.848-0.125c0,0-0.017,0-0.033,0c-20.334,0-36.498-16.404-36.498-37.338
	c0-20.626,16.771-37.413,37.404-37.413c2.686,0,5.395,0.299,8.037,0.896c16.403,1.746,46.088,4.754,58.09,4.754
	c12.598-0.018,44.676-3.357,57.889-4.787c2.443-0.557,5.152-0.864,7.847-0.864c20.627,0,37.403,16.787,37.403,37.413
	c0,20.635-16.776,37.414-37.403,37.414c-2.66,0-5.418-0.315-8.244-0.931c-12.939-1.396-44.867-4.705-57.392-4.705
	c-0.032,0-0.065,0-0.1,0c-13.205,0-48.103,3.707-58.488,4.828c-2.195,0.475-4.68,0.748-7.188,0.781l-0.025-2.127l0.25,2.11
	l-0.25-2.11l-0.182,2.16L944.298,195.094z M944.333,124.481c-18.283,0-33.16,14.866-33.16,33.149
	c0,18.574,14.328,33.117,32.595,33.117l0.582,0.066l0.383-0.033c2.244-0.033,4.453-0.274,6.582-0.724
	c13.578-1.495,46.088-4.887,59.152-4.887c12.432-0.05,41.676,2.983,58.172,4.771c2.777,0.599,5.178,0.873,7.547,0.873
	c18.283,0,33.158-14.867,33.158-33.158c0-18.283-14.875-33.158-33.158-33.158c-2.369,0-4.779,0.266-7.131,0.806
	c-13.512,1.479-45.789,4.828-58.588,4.846c-12.199,0-42.06-3.018-58.787-4.812C949.104,124.747,946.691,124.481,944.333,124.481z"/>
<g id="DIE_CUT">
</g>
<rect x="480.578" y="68.483" fill="#EE7402" width="350.115" height="58.066"/>
<text transform="matrix(1 0 0 1 491.2568 112.0996)" fill="#FFFFFF" font-family="'TynineSansMono-Reg'" font-size="44.4883">LEAVE A SONG</text>
<rect x="480.578" y="131.095" fill="#EE7402" width="350.115" height="58.068"/>
<text transform="matrix(1 0 0 1 491.2568 174.7129)" fill="#FFFFFF" font-family="'TynineSansMono-Reg'" font-size="44.4883">FOR THE YUN!</text>
</svg>
